<?xml version="1.0" encoding="UTF-8" standalone="no"?>
<!-- Created with Inkscape (http://www.inkscape.org/) -->

<svg
   xmlns:dc="http://purl.org/dc/elements/1.1/"
   xmlns:cc="http://creativecommons.org/ns#"
   xmlns:rdf="http://www.w3.org/1999/02/22-rdf-syntax-ns#"
   xmlns:svg="http://www.w3.org/2000/svg"
   xmlns="http://www.w3.org/2000/svg"
   xmlns:sodipodi="http://sodipodi.sourceforge.net/DTD/sodipodi-0.dtd"
   xmlns:inkscape="http://www.inkscape.org/namespaces/inkscape"
   width="210mm"
   height="297mm"
   viewBox="0 0 210 297"
   version="1.1"
   id="svg8"
   inkscape:version="0.92.4 (5da689c313, 2019-01-14)"
   sodipodi:docname="towers.svg">
  <defs
     id="defs2">
    <inkscape:path-effect
       effect="skeletal"
       id="path-effect5903"
       is_visible="true"
       pattern="#path815-2"
       copytype="repeated_stretched"
       prop_scale="3"
       scale_y_rel="false"
       spacing="0"
       normal_offset="0"
       tang_offset="0"
       prop_units="false"
       vertical_pattern="false"
       fuse_tolerance="0" />
    <inkscape:path-effect
       effect="skeletal"
       id="path-effect5866"
       is_visible="true"
       pattern="#path5845"
       copytype="repeated_stretched"
       prop_scale="1"
       scale_y_rel="false"
       spacing="1.1"
       normal_offset="0"
       tang_offset="0"
       prop_units="false"
       vertical_pattern="false"
       fuse_tolerance="0" />
    <inkscape:path-effect
       effect="skeletal"
       id="path-effect830"
       is_visible="true"
       pattern="#path815"
       copytype="repeated_stretched"
       prop_scale="1.31"
       scale_y_rel="false"
       spacing="-15.1"
       normal_offset="-5"
       tang_offset="0"
       prop_units="false"
       vertical_pattern="false"
       fuse_tolerance="0" />
  </defs>
  <sodipodi:namedview
     id="base"
     pagecolor="#ffffff"
     bordercolor="#666666"
     borderopacity="1.0"
     inkscape:pageopacity="0.0"
     inkscape:pageshadow="2"
     inkscape:zoom="0.175"
     inkscape:cx="-865.60703"
     inkscape:cy="1226.4715"
     inkscape:document-units="mm"
     inkscape:current-layer="layer1"
     showgrid="false"
     inkscape:window-width="2880"
     inkscape:window-height="1526"
     inkscape:window-x="2869"
     inkscape:window-y="-11"
     inkscape:window-maximized="1" />
  <metadata
     id="metadata5">
    <rdf:RDF>
      <cc:Work
         rdf:about="">
        <dc:format>image/svg+xml</dc:format>
        <dc:type
           rdf:resource="http://purl.org/dc/dcmitype/StillImage" />
        <dc:title></dc:title>
      </cc:Work>
    </rdf:RDF>
  </metadata>
  <g
     inkscape:label="Layer 1"
     inkscape:groupmode="layer"
     id="layer1">
    <path
       style="opacity:1;fill:#ffffff;fill-opacity:1;stroke:none;stroke-width:12.75104757;stroke-linecap:round;stroke-linejoin:round;stroke-miterlimit:4;stroke-dasharray:none;stroke-opacity:1"
       d="m 363.19831,184.08821 c 23.6083,8.33328 50.2296,8.14747 75.91295,-3.88286 -1.09933,24.06065 -10.34777,45.12879 -25.24315,60.70228 -10.63643,-25.1286 -28.63483,-45.38539 -50.6698,-56.81942 z m -8.64683,8.78226 c 11.97459,21.75482 32.60529,39.34449 57.94115,49.44361 -15.23676,15.23674 -36.04432,24.90268 -59.92053,26.49566 11.26726,-25.85878 10.81858,-52.48885 1.97938,-75.93927 z m -8.0504,0.14925 c -8.3333,23.60829 -8.14751,50.22959 3.8828,75.91295 -24.06065,-1.09934 -45.12879,-10.3478 -60.70226,-25.24319 25.12861,-10.63641 45.38541,-28.6348 56.81946,-50.66976 z m -8.78227,-8.64683 c -21.75482,11.97457 -39.34451,32.60526 -49.44364,57.94111 -15.23673,-15.23677 -24.90266,-36.04434 -26.49562,-59.92055 25.85877,11.26727 52.48884,10.81862 75.93926,1.97944 z m -0.14923,-8.05041 c -23.60829,-8.33331 -50.22959,-8.14754 -75.91296,3.88274 1.09937,-24.06064 10.34783,-45.12877 25.24324,-60.70223 10.63639,25.12861 28.63477,45.38543 50.66972,56.81949 z m 8.64683,-8.78225 c -11.97455,-21.75484 -32.60522,-39.34454 -57.94107,-49.44369 15.23679,-15.23672 36.04437,-24.902634 59.92058,-26.495576 -11.2673,25.858766 -10.81867,52.488836 -1.97951,75.939266 z m 8.05041,-0.14923 c 8.33334,-23.60828 8.14758,-50.22958 -3.88267,-75.912955 24.06063,1.099379 45.12875,10.347855 60.70221,25.243275 -25.12863,10.63638 -45.38546,28.63474 -56.81954,50.66968 z m 8.78226,8.64684 c 21.75484,-11.97453 39.34456,-32.6052 49.44372,-57.94104 15.23672,15.2368 24.90261,36.04438 26.49554,59.92061 -25.85876,-11.26733 -52.48883,-10.81871 -75.93926,-1.97957 z"
       id="path5842"
       inkscape:connector-curvature="0"
       inkscape:path-effect="#path-effect5866"
       inkscape:original-d="m 401.41073,180.20535 a 51.026787,51.026787 0 0 1 -51.02679,51.02679 51.026787,51.026787 0 0 1 -51.02679,-51.02679 51.026787,51.026787 0 0 1 51.02679,-51.02678 51.026787,51.026787 0 0 1 51.02679,51.02678 z"
       transform="matrix(0.78424931,0,0,0.78424927,105.18895,-185.92074)"
       inkscape:export-filename="D:\Documents\Unity\tower-defense\Assets\sprites\towerl3.png"
       inkscape:export-xdpi="36.502468"
       inkscape:export-ydpi="36.502468" />
    <path
       style="opacity:1;fill:#ffffff;fill-opacity:1;stroke:none;stroke-width:10.42982483;stroke-linecap:round;stroke-linejoin:round;stroke-miterlimit:4;stroke-dasharray:none;stroke-opacity:1"
       d="m 380.01267,-511.64486 a 68.15866,68.15866 0 0 0 -68.15865,68.15866 68.15866,68.15866 0 0 0 68.15865,68.15864 68.15866,68.15866 0 0 0 68.15866,-68.15864 68.15866,68.15866 0 0 0 -68.15866,-68.15866 z m -11.63825,25.45026 h 23.27683 c 0.92108,0 1.66269,0.19841 1.66269,0.44488 v 28.96225 h 28.96224 c 0.24646,0 0.44488,0.74159 0.44488,1.6627 v 23.2768 c 0,0.9211 -0.19842,1.6627 -0.44488,1.6627 h -28.96224 v 28.96224 c 0,0.24647 -0.74161,0.44489 -1.66269,0.44489 h -23.27683 c -0.9211,0 -1.66269,-0.19842 -1.6627,-0.44489 v -28.96224 h -28.96224 c -0.24646,0 -0.44487,-0.7416 -0.44487,-1.6627 v -23.2768 c 0,-0.92111 0.19841,-1.6627 0.44487,-1.6627 h 28.96224 v -28.96225 c 0,-0.24647 0.7416,-0.44488 1.6627,-0.44488 z"
       id="path815-3-0"
       inkscape:connector-curvature="0"
       inkscape:export-filename="D:\Documents\Unity\tower-defense\Assets\sprites\towerl1.png"
       inkscape:export-xdpi="37.265999"
       inkscape:export-ydpi="37.265999" />
    <path
       style="opacity:1;fill:#c6d9d9;fill-opacity:0.60596026;stroke:#000000;stroke-width:10;stroke-linecap:round;stroke-linejoin:round;stroke-miterlimit:4;stroke-dasharray:none;stroke-opacity:1"
       d="m -268.87334,-130.23245 a 65.349761,65.349761 0 0 0 -65.34975,65.349754 65.349761,65.349761 0 0 0 65.34975,65.34975453 65.349761,65.349761 0 0 0 65.34976,-65.34975453 65.349761,65.349761 0 0 0 -65.34976,-65.349754 z m -11.15862,24.40143 h 22.31755 c 0.88313,0 1.59418,0.19023 1.59418,0.42654 v 27.768677 h 27.76867 c 0.23631,0 0.42655,0.711031 0.42655,1.594178 v 22.317547 c 0,0.883134 -0.19024,1.594177 -0.42655,1.594177 h -27.76867 v 27.768675 c 0,0.236304 -0.71105,0.426546 -1.59418,0.426546 h -22.31755 c -0.88314,0 -1.59417,-0.190242 -1.59418,-0.426546 v -27.768675 h -27.76867 c -0.23631,0 -0.42654,-0.711043 -0.42654,-1.594177 v -22.317547 c 0,-0.883147 0.19023,-1.594178 0.42654,-1.594178 h 27.76867 v -27.768677 c 0,-0.23631 0.71104,-0.42654 1.59418,-0.42654 z"
       id="path815-3"
       inkscape:connector-curvature="0" />
    <path
       style="opacity:1;fill:#ffffff;fill-opacity:1;stroke:none;stroke-width:11.36774158;stroke-linecap:round;stroke-linejoin:round;stroke-miterlimit:4;stroke-dasharray:none;stroke-opacity:1"
       d="m 380.01298,-328.39465 a 72.063714,72.063714 0 0 0 -72.06416,72.06354 72.063714,72.063714 0 0 0 72.06416,72.06415 72.063714,72.063714 0 0 0 72.06355,-72.06415 72.063714,72.063714 0 0 0 -72.06355,-72.06354 z m -9.20644,4.45987 h 18.4117 c 0.70807,0 1.27828,0.57017 1.27828,1.27828 v 31.6838 a 36.203873,36.203873 0 0 1 24.13513,24.15748 h 31.70674 c 0.7081,0 1.27828,0.57018 1.27828,1.27828 v 18.41168 c 0,0.70809 -0.57018,1.27828 -1.27828,1.27828 h -31.68442 a 36.203873,36.203873 0 0 1 -24.15745,24.13515 v 31.70672 c 0,0.70809 -0.57021,1.27827 -1.27828,1.27827 h -18.4117 c -0.70811,0 -1.27828,-0.57018 -1.27828,-1.27827 v -31.6844 a 36.203873,36.203873 0 0 1 -24.13457,-24.15747 H 313.687 c -0.70811,0 -1.27828,-0.57019 -1.27828,-1.27828 v -18.41168 c 0,-0.7081 0.57017,-1.27828 1.27828,-1.27828 h 31.68381 a 36.203873,36.203873 0 0 1 24.15745,-24.13456 v -31.70672 c 0,-0.70811 0.57017,-1.27828 1.27828,-1.27828 z"
       id="path815-6"
       inkscape:connector-curvature="0"
       inkscape:export-filename="D:\Documents\Unity\tower-defense\Assets\sprites\towerl2.png"
       inkscape:export-xdpi="35.246513"
       inkscape:export-ydpi="35.246513" />
    <path
       style="opacity:1;fill:#c6d9d9;fill-opacity:0.60596026;stroke:none;stroke-width:2;stroke-linecap:round;stroke-linejoin:round;stroke-miterlimit:4;stroke-dasharray:none;stroke-opacity:1"
       d="M 65.011904,38.086308 A 19.276785,19.276785 0 0 1 45.735119,57.363092 19.276785,19.276785 0 0 1 26.458334,38.086308 19.276785,19.276785 0 0 1 45.735119,18.809523 19.276785,19.276785 0 0 1 65.011904,38.086308 Z"
       id="path815"
       inkscape:connector-curvature="0" />
    <path
       style="opacity:1;fill:none;fill-opacity:1;stroke:#ffffff;stroke-width:4.77302136;stroke-linecap:round;stroke-linejoin:round;stroke-miterlimit:4;stroke-dasharray:none;stroke-opacity:1"
       d="m 65.246321,155.86234 c -3.863358,-5.12361 -6.139885,-12.00205 -7.299997,-17.13056 -1.221041,-5.39784 -1.382408,-9.39824 0.09595,-12.01615 1.474298,-2.61072 4.849754,-4.3446 9.816394,-6.2524 4.575071,-1.75739 11.762881,-4.13585 18.066336,-4.13585 6.729368,0 13.141097,2.66883 16.858281,9.60042 3.66764,6.83921 3.65531,16.34 -0.65533,24.55806 -4.318102,8.23227 -11.873172,13.1799 -19.374676,13.78254 -7.553896,0.60685 -13.503566,-3.09673 -17.506953,-8.40606 z m -25.905387,9.95999 c -0.43586,-6.26197 1.42235,-13.52916 2.900901,-18.2502 1.599313,-5.10664 3.174536,-8.63102 5.740986,-10.27727 2.572867,-1.65037 6.597154,-1.69634 12.054756,-0.76636 5.175092,0.88184 12.178574,2.77913 17.494061,6.33967 5.519852,3.69743 9.538455,9.4282 9.35463,17.02174 -0.182479,7.53797 -4.683899,15.36589 -12.602058,20.12193 -7.907067,4.74938 -17.307749,5.26284 -24.310286,1.99481 -7.092202,-3.30987 -10.168936,-9.51729 -10.63299,-16.18432 z m -27.081842,-6.67752 c 3.271162,-5.53856 8.732812,-10.19079 12.907574,-13.25327 4.326988,-3.17414 7.725522,-5.04774 10.233074,-5.12059 0.297637,-0.009 0.591822,0.005 0.885973,0.04 2.278301,0.72573 5.609077,3.19422 9.392342,6.60347 3.747442,3.37696 8.415904,8.16037 11.089397,13.62546 2.738182,5.59732 3.446081,12.1005 -0.08633,18.23931 -3.50927,6.0986 -10.85625,10.84375 -20.395414,11.84324 -1.090601,0.0148 -2.179723,-0.0229 -3.261028,-0.11269 -10.068869,-0.83584 -18.013188,-5.95073 -21.640558,-12.58573 -3.6515548,-6.67925 -2.4901291,-13.58157 0.874965,-19.27917 z M -7.0543456,139.4409 c 5.5475412,-3.12597 12.6905898,-4.48929 17.8937936,-4.99225 5.503521,-0.53199 9.533311,-0.21491 12.022469,1.64761 2.484549,1.85907 3.8372,5.5532 5.021279,10.81702 1.100154,4.89074 2.279009,12.22171 1.274475,18.40659 -1.065048,6.55748 -4.664078,12.46941 -11.939079,15.22485 -7.190047,2.72326 -16.42567878,1.54013 -23.8900604,-3.78242 -7.4715066,-5.32764 -11.3592456,-13.49626 -10.9759936,-21.04962 0.386327,-7.61395 4.813404,-13.01498 10.5931164,-16.27178 z m -6.0569724,-27.24285 c 4.9511712,0.46555 9.8713502,2.34186 14.02849324,4.12933 6.63649266,2.91866 11.26682176,5.50598 12.68534076,8.58146 1.224949,2.6558 0.771969,6.59783 -0.839152,11.87929 -1.534503,5.03028 -4.3058351,11.7097 -8.5544102,16.54545 -4.39172479,4.99867 -10.6046348,8.25749 -18.0715488,7.07456 -7.418052,-1.17518 -14.57471,-6.71819 -18.277829,-15.35476 -4.66725,-10.88515 -2.269131,-22.73628 4.516102,-28.726 4.360969,-3.6223 9.492401,-4.60141 14.513004,-4.12933 z M -2.6101762,86.532456 c 5.0738945,3.98471 8.9863781,10.023898 11.4304872,14.637454 2.550099,4.81363 3.790826,8.49031 3.288143,11.12146 -0.269091,1.40849 -1.007506,2.6551 -2.2269314,4.03601 0,0 -2e-7,0 -2e-7,0 -3.1773038,3.04266 -12.6639311,11.31597 -20.9182664,13.98299 -4.64921,1.50218 -9.661608,1.70042 -14.427772,-0.54647 -4.742995,-2.23597 -8.870868,-6.79231 -11.124153,-13.43651 2e-6,-10e-6 -10e-7,-10e-6 -10e-7,-10e-6 -1.139204,-4.53821 -1.206221,-9.48342 -0.174896,-14.22712 2.07231,-9.531836 8.100321,-16.505974 15.142748,-19.114804 7.086719,-2.625238 13.7866785,-0.555565 19.0106418,3.547 z M 19.49438,70.003374 c 2.306239,5.875521 2.68139,13.177674 2.522842,18.334813 -0.168741,5.48867 -0.932756,9.451997 -3.105672,11.734753 -2.172169,2.28198 -6.077173,3.22715 -11.5236271,3.69656 -5.101785,0.43972 -12.4381036,0.50905 -18.4246279,-1.42524 -6.298627,-2.03514 -11.645022,-6.456896 -13.429753,-13.955526 -1.76687,-7.423587 0.554888,-16.291744 6.815913,-22.928033 C -11.38847,58.8233 -2.7072579,56.027824 4.7799936,57.384855 12.337836,58.75468 17.07552,63.840932 19.49438,70.003374 Z M 47.39622,68.176026 C 45.46157,75.773419 39.295099,84.201162 36.285713,88.245089 34.396348,90.530762 32.811081,91.939 30.893462,92.46685 28.236843,93.198119 24.463976,92.203648 19.483672,89.928589 14.720112,87.752541 8.4679484,84.168608 4.20905,79.321092 -0.17959965,74.325891 -2.6166881,67.746597 -0.42379169,60.521961 1.7554327,53.342369 8.3092142,46.956783 17.59007,44.382259 c 6.336642,-1.757794 13.066921,-1.452962 18.695643,0.748834 5.234839,2.494165 8.710278,6.232234 10.456653,10.38228 1.752805,4.165327 1.708304,8.521815 0.653854,12.662653 z M 71.277896,82.07825 c -4.602611,4.514056 -11.113237,7.637503 -16.045124,9.446053 -5.169046,1.895519 -9.049427,2.572584 -11.715823,1.549288 C 40.899516,92.069084 38.860213,89.231605 36.285713,84.82453 33.749391,80.255432 30.193087,73.70921 29.1578,67.334858 28.081877,60.710313 29.628364,53.65437 36.285713,48.551652 42.669177,44.163442 52.13511,43.0973 60.839825,46.252613 c 8.919282,3.23309 14.895211,10.07446 16.495447,17.405739 1.610468,7.378157 -1.30687,13.760792 -6.057376,18.419898 z m 13.411246,24.17172 c -6.111102,1.40852 -13.459762,0.71185 -18.453613,-0.10822 -5.355552,-0.87947 -9.152052,-2.06229 -11.15302,-4.47014 -2.003467,-2.410856 -2.513963,-6.424396 -2.278245,-11.936202 0.22231,-5.19826 1.175652,-12.422033 3.963303,-18.120446 2.912152,-5.952914 8.045393,-10.66787 15.649756,-11.473003 7.539675,-0.798284 15.938362,2.629576 21.671981,9.755807 5.730059,7.121806 7.400686,16.213872 5.082102,23.51743 -2.34428,7.384484 -8.024115,11.346274 -14.482264,12.834774 z m -2.394821,29.10559 c -6.340178,-2.99414 -12.32744,-8.75088 -15.706664,-12.24901 -3.699797,-3.82999 -5.706573,-6.39139 -5.885839,-8.99201 -0.177236,-2.57117 1.417071,-6.09626 4.330966,-10.64627 2.80226,-4.3757 7.145781,-10.095834 12.498925,-13.681578 5.507634,-3.689228 12.338002,-5.243743 19.204495,-2.029461 6.822486,3.193683 12.337386,10.729261 13.707546,20.579369 1.36529,9.81504 -1.78313,19.53037 -7.82879,24.92474 -6.143827,5.48196 -13.55773,5.288 -20.320639,2.09422 z"
       id="path817"
       inkscape:connector-curvature="0"
       inkscape:path-effect="#path-effect830"
       inkscape:original-d="M 79.375,116.32738 A 43.089287,43.089287 0 0 1 36.285713,159.41666 43.089287,43.089287 0 0 1 -6.8035736,116.32738 43.089287,43.089287 0 0 1 36.285713,73.238091 43.089287,43.089287 0 0 1 79.375,116.32738 Z"
       transform="matrix(1.0475545,0,0,1.0475545,337.68969,24.785654)"
       inkscape:export-filename="D:\Documents\Unity\tower-defense\Assets\sprites\towerl4.png"
       inkscape:export-xdpi="31.688633"
       inkscape:export-ydpi="31.688633" />
    <path
       style="opacity:1;fill:none;fill-opacity:0.60596026;stroke:#000000;stroke-width:11.77989674;stroke-linecap:round;stroke-linejoin:round;stroke-miterlimit:4;stroke-dasharray:none;stroke-opacity:1"
       inkscape:transform-center-y="12.56685"
       d="m 90.337097,270.02138 -18.073314,-75.40107 36.146627,1e-5 z"
       id="path5845"
       inkscape:connector-curvature="0"
       inkscape:transform-center-x="1.367321e-06" />
    <path
       style="opacity:1;fill:#c6d9d9;fill-opacity:0.60596026;stroke:#000000;stroke-width:10;stroke-linecap:round;stroke-linejoin:round;stroke-miterlimit:4;stroke-dasharray:none;stroke-opacity:1"
       d="m 127.06676,-180.28188 c -6.96836,-3.11289 -14.2727,-7.53596 -18.80422,-10.42662 -4.86372,-3.10258 -7.58122,-5.06205 -7.3821,-6.06681 0.20117,-1.01514 3.40413,-1.49528 9.09817,-2.2015 5.04168,-0.62532 14.08692,-1.67904 21.55139,-1.67904 8.23825,0 15.76697,1.18515 21.34667,4.51172 5.45635,3.25302 7.99132,8.07054 6.98068,12.49246 -1.01261,4.43058 -5.35684,7.54354 -11.64062,8.11641 -6.38985,0.58254 -13.7415,-1.43713 -21.14997,-4.74662 z m -11.94053,17.24411 c -5.47026,-5.47026 -10.68284,-12.19301 -13.87296,-16.66804 -3.395134,-4.76263 -5.091342,-7.73305 -4.336447,-8.7632 0.755726,-1.03128 4.153767,-0.39219 9.773657,1.14192 5.2034,1.42042 13.44413,3.94849 20.37628,7.04521 7.4199,3.3146 13.80676,7.43768 17.70981,12.59096 3.82975,5.05651 4.53651,10.31872 2.0972,13.89445 -2.44104,3.57827 -7.54201,4.7562 -13.61051,2.93516 -6.16969,-1.8514 -12.35763,-6.39705 -18.13703,-12.17646 z m -17.244121,11.94052 c -3.096712,-6.93215 -5.624784,-15.17288 -7.045196,-20.37629 -1.534103,-5.61989 -2.173196,-9.01793 -1.141911,-9.77365 1.030148,-0.7549 4.000568,0.94131 8.763196,4.33645 4.475032,3.19012 11.197772,8.40271 16.668032,13.87297 5.7794,5.77941 10.32505,11.96735 12.17645,18.13705 1.82102,6.06849 0.6431,11.16946 -2.93518,13.6105 -3.57573,2.4393 -8.83794,1.73255 -13.89445,-2.09721 -5.15327,-3.90305 -9.27635,-10.28992 -12.590941,-17.70982 z m -20.373969,4.46321 c 0,-1e-5 1.2e-5,-0.0571 1.2e-5,-0.0571 0,0 0,0 0,0 0,0 0,-1e-5 0,-1e-5 0,0 0,0 0,0 0,0 0,0 0,0 0,0 0,-1e-5 0,-1e-5 0,0 0,0 0,0 0,0 0,0 0,0 0,0 0,-1e-5 0,-1e-5 0,0 0,0 0,0 0,0 0,0 0,0 0,0 0,0 0,-1e-5 0,0 0,0 0,0 0,0 0,0 0,0 0,0 0,-10e-6 0,-10e-6 0,0 0,0 0,0 0,0 0,-1e-5 0,-1e-5 0,0 0,0 0,0 0,0 0,0 0,0 0,0 0,0 0,-1e-5 0,0 0,0 0,0 0,0 0,0 0,0 0,0 0,-1e-5 0,-1e-5 0,0 0,0 0,0 0,0 0,0 0,0 0,0 0,-1e-5 0,-1e-5 0,0 0,0 0,0 0.0048,-7.45276 1.057602,-16.48655 1.681528,-21.51426 0.705094,-5.68178 1.184819,-8.87709 2.199017,-9.07807 1.004759,-0.19911 2.964226,2.51838 6.066801,7.38211 2.890662,4.53152 7.313723,11.83586 10.426611,18.80423 3.309491,7.40847 5.329151,14.76013 4.746601,21.14997 -0.57287,6.28379 -3.685844,10.62801 -8.11642,11.64062 -4.416221,1.00933 -9.228082,-1.51802 -12.481014,-6.96152 -3.326386,-5.56642 -4.517775,-13.0807 -4.523124,-21.30864 0,0 0,0 0,0 0,-1e-5 0,-1e-5 0,-1e-5 0,0 0,0 0,0 0,0 0,0 0,0 0,-1e-5 0,-1e-5 0,-1e-5 0,0 0,0 0,0 0,0 0,0 0,0 0,-1e-5 0,-1e-5 0,-1e-5 0,0 0,0 0,0 0,0 0,0 0,0 0,0 0,-1e-5 0,-1e-5 0,0 0,0 0,0 0,-1e-5 0,-1e-5 0,-1e-5 0,0 0,0 0,0 0,0 0,0 0,0 0,0 0,-10e-6 0,-10e-6 0,0 0,0 0,0 0,0 0,0 0,0 0,-1e-5 0,-1e-5 0,-1e-5 0,0 0,0 0,0 0,0 0,0 0,0 0,0 0,-1e-5 0,-1e-5 0,0 0,0 0,0 0,0 0,0 0,0 0,-1e-5 0,-1e-5 0,-1e-5 0,0 0,0 0,0 0,0 -1.2e-5,-0.0571 -1.2e-5,-0.0571 z m -20.373977,-4.46323 c 3.112895,-6.96837 7.535963,-14.2727 10.42663,-18.80422 3.102581,-4.86373 5.062051,-7.58122 6.066811,-7.38211 1.015139,0.20118 1.495277,3.40414 2.201501,9.09818 0.625314,5.04168 1.679033,14.08692 1.679028,21.55139 -5e-6,8.23825 -1.185155,15.76697 -4.511723,21.34667 -3.253029,5.45635 -8.070545,7.99132 -12.492466,6.98068 -4.430573,-1.01262 -7.543539,-5.35684 -8.116407,-11.64062 -0.582537,-6.38985 1.437132,-13.7415 4.746626,-21.14997 z m -17.244107,-11.94054 c 5.470262,-5.47026 12.193011,-10.68284 16.668042,-13.87295 4.762631,-3.39514 7.733054,-5.09135 8.763202,-4.33645 1.031284,0.75573 0.392188,4.15376 -1.14192,9.77365 -1.420417,5.20341 -3.948498,13.44414 -7.045217,20.37629 -3.314601,7.41989 -7.437683,13.80676 -12.590965,17.7098 -5.056512,3.82976 -10.318717,4.53651 -13.894452,2.0972 -3.578269,-2.44104 -4.756191,-7.54201 -2.935156,-13.61051 1.851403,-6.16969 6.397057,-12.35763 12.176466,-18.13703 z m -11.94052,-17.24412 c 6.932157,-3.09671 15.172886,-5.62478 20.376295,-7.04519 5.61989,-1.5341 9.017928,-2.1732 9.773654,-1.14191 0.754894,1.03015 -0.941317,4.00057 -4.336456,8.76319 -3.190118,4.47503 -8.40271,11.19777 -13.872973,16.66803 -5.779411,5.7794 -11.967351,10.32505 -18.137048,12.17645 -6.068497,1.82102 -11.169469,0.64309 -13.6105019,-2.93518 -2.4393059,-3.57574 -1.7325467,-8.83794 2.0972129,-13.89445 3.903052,-5.15328 10.289921,-9.27635 17.709817,-12.59094 z m -4.463173,-20.37396 c 1.2e-5,0 0.100319,4e-5 0.100307,4e-5 0,0 5e-6,0 5e-6,0 0,0 5e-6,0 5e-6,0 0,0 2e-6,0 2e-6,0 0,0 3e-6,0 3e-6,0 0,0 4e-6,0 4e-6,0 0,0 5e-6,0 5e-6,0 7.443925,0.008 16.469072,1.0605 21.486258,1.68338 5.672542,0.70424 8.86209,1.18365 9.062932,2.19714 0.199113,1.00475 -2.518384,2.96422 -7.38211,6.06679 -4.531522,2.89066 -11.835866,7.31372 -18.804238,10.42661 -7.408469,3.30948 -14.760125,5.32914 -21.1499724,4.7466 -6.28378222,-0.57288 -10.6280026,-3.68585 -11.6406141,-8.11643 -1.0083497,-4.41192 1.5132645,-9.21952 6.9470849,-12.47237 5.5564087,-3.32625 13.0597986,-4.52233 21.2799396,-4.53172 0,0 5e-6,0 5e-6,0 0,0 4e-6,0 4e-6,0 0,0 3e-6,0 3e-6,0 0,0 2e-6,0 2e-6,0 0,0 5e-6,0 5e-6,0 2e-6,0 3e-6,0 5e-6,0 0,0 0.100365,-4e-5 0.100365,-4e-5 z m 4.463208,-20.37399 c 6.968368,3.1129 14.272703,7.53597 18.80422,10.42664 4.863721,3.10258 7.581215,5.06205 7.382099,6.06681 -0.201171,1.01514 -3.404139,1.49528 -9.098174,2.2015 -5.041688,0.62531 -14.086927,1.67903 -21.551389,1.67902 -8.238248,-1e-5 -15.7669672,-1.18516 -21.3466682,-4.51173 -5.4563516,-3.25303 -7.991319,-8.07055 -6.9806773,-12.49246 1.0126185,-4.43058 5.356843,-7.54354 11.6406256,-8.11641 6.3898479,-0.58253 13.7414999,1.43714 21.1499639,4.74663 z m 11.940545,-17.2441 c 5.470256,5.47026 10.682838,12.19301 13.87295,16.66805 3.395132,4.76263 5.09134,7.73305 4.336444,8.7632 -0.755727,1.03128 -4.153764,0.39219 -9.773652,-1.14192 -5.203409,-1.42042 -13.444133,-3.9485 -20.376287,-7.04523 -7.419891,-3.3146 -13.806754,-7.43768 -17.709799,-12.59097 -3.8297525,-5.05651 -4.5365039,-10.31871 -2.097192,-13.89445 2.441039,-3.57827 7.542012,-4.75619 13.610506,-2.93515 6.169695,1.85141 12.357628,6.39706 18.13703,12.17647 z m 17.244123,-11.94051 c 3.096708,6.93215 5.624777,15.17288 7.045187,20.37629 1.5341,5.61989 2.173192,9.01793 1.141908,9.77366 -1.030148,0.75489 -4.000568,-0.94132 -8.763194,-4.33646 -4.475026,-3.19012 -11.197769,-8.40271 -16.668024,-13.87298 -5.779401,-5.77941 -10.325047,-11.96735 -12.176441,-18.13705 -1.821026,-6.0685 -0.643096,-11.16947 2.935177,-13.6105 3.57574,-2.43931 8.837944,-1.73254 13.89445,2.09722 5.153276,3.90305 9.276348,10.28992 12.590937,17.70982 z m 20.373955,-4.46317 c 0,2e-5 -4.2e-5,0.1076 -4.2e-5,0.10758 0,0 0,1e-5 0,1e-5 0,0 0,0 0,0 0,0 0,0 0,0 0,0 0,0 0,0 0,0 0,10e-6 0,10e-6 0,0 0,0 0,0 -0.0091,7.44244 -1.060987,16.46612 -1.68369,21.48154 -0.704097,5.67098 -1.183458,8.85956 -2.196825,9.06038 -1.004758,0.19911 -2.964224,-2.51839 -6.066796,-7.38211 -2.890659,-4.53153 -7.313717,-11.83587 -10.426602,-18.80424 -3.309482,-7.40847 -5.32914,-14.76013 -4.746592,-21.14998 0.572878,-6.28378 3.685852,-10.628 8.116429,-11.64061 4.411202,-1.00818 9.218078,1.51247 12.470918,6.94466 3.326215,5.55472 4.523092,13.05627 4.533158,21.2751 0,0 0,0 0,0 0,0 0,1e-5 0,1e-5 0,0 0,0 0,0 0,0 0,0 0,0 0,0 0,0 0,0 0,0 0,1e-5 0,1e-5 0,0 4.2e-5,0.10764 4.2e-5,0.10764 z m 20.373991,4.46321 c -3.112899,6.96837 -7.535971,14.2727 -10.426641,18.80422 -3.102583,4.86372 -5.062056,7.58121 -6.066815,7.3821 -1.01514,-0.20118 -1.495276,-3.40414 -2.201497,-9.09818 -0.625311,-5.04169 -1.679024,-14.08692 -1.679014,-21.55139 1.1e-5,-8.23825 1.185165,-15.76696 4.511736,-21.34666 3.253032,-5.45635 8.070549,-7.99132 12.492469,-6.98068 4.430572,1.01262 7.543537,5.35685 8.116397,11.64063 0.58254,6.38985 -1.43714,13.7415 -4.746635,21.14996 z m 17.244105,11.94055 c -5.47027,5.47025 -12.19302,10.68283 -16.668053,13.87295 -4.762632,3.39513 -7.733056,5.09133 -8.763204,4.33644 -1.031285,-0.75573 -0.392187,-4.15377 1.141924,-9.77365 1.42042,-5.20341 3.948505,-13.44414 7.045228,-20.37629 3.314605,-7.41989 7.437695,-13.80675 12.590975,-17.70979 5.05651,-3.82976 10.31872,-4.53651 13.89445,-2.09719 3.57827,2.44104 4.75619,7.54201 2.93515,13.6105 -1.85141,6.1697 -6.39706,12.35763 -12.17647,18.13703 z m 11.94051,17.24413 c -6.93216,3.0967 -15.17289,5.62477 -20.3763,7.04518 -5.61989,1.5341 -9.017929,2.17319 -9.773655,1.1419 -0.754893,-1.03015 0.941319,-4.00056 4.336465,-8.76319 3.19012,-4.47503 8.40271,-11.19777 13.87298,-16.66802 5.77941,-5.7794 11.96735,-10.32504 18.13705,-12.17644 6.0685,-1.82102 11.16947,-0.64309 13.6105,2.93518 2.4393,3.57574 1.73254,8.83795 -2.09722,13.89445 -3.90305,5.15328 -10.28992,9.27635 -17.70982,12.59094 z m 4.4632,20.37397 c -7.46447,-1e-5 -16.50971,-1.05374 -21.55139,-1.67907 -5.69403,-0.70623 -8.897,-1.18637 -9.09817,-2.20151 -0.19911,-1.00476 2.51839,-2.96423 7.38212,-6.0668 4.53152,-2.89066 11.83586,-7.31371 18.80424,-10.42659 7.40847,-3.30949 14.76012,-5.32914 21.14997,-4.74659 6.28378,0.57288 10.628,3.68585 11.64061,8.11643 1.01063,4.42192 -1.52434,9.23944 -6.9807,12.49245 -5.57971,3.32656 -13.10843,4.5117 -21.34668,4.51168 z"
       id="path815-0"
       inkscape:connector-curvature="0"
       inkscape:path-effect="#path-effect5903"
       inkscape:original-d="m 131.52999,-200.65585 a 54.021824,54.021824 0 0 1 -54.021838,54.02181 54.021824,54.021824 0 0 1 -54.021818,-54.02181 54.021824,54.021824 0 0 1 54.021818,-54.02184 54.021824,54.021824 0 0 1 54.021838,54.02184 z" />
    <path
       style="opacity:1;fill:#c6d9d9;fill-opacity:0.60596026;stroke:none;stroke-width:1.05719113;stroke-linecap:round;stroke-linejoin:round;stroke-miterlimit:4;stroke-dasharray:none;stroke-opacity:1"
       d="m -63.042229,-79.850037 a 10.189622,10.189622 0 0 1 -10.189622,10.189624 10.189622,10.189622 0 0 1 -10.189623,-10.189624 10.189622,10.189622 0 0 1 10.189623,-10.189619 10.189622,10.189622 0 0 1 10.189622,10.189619 z"
       id="path815-2"
       inkscape:connector-curvature="0" />
    <path
       style="opacity:1;fill:#c6d9d9;fill-opacity:0.60596026;stroke:#000000;stroke-width:10;stroke-linecap:round;stroke-linejoin:round;stroke-miterlimit:4;stroke-dasharray:none;stroke-opacity:1"
       d="m -274.21854,40.819802 a 65.349763,65.349763 0 0 0 -65.34975,65.349758 65.349763,65.349763 0 0 0 65.34975,65.34976 65.349763,65.349763 0 0 0 65.34976,-65.34976 65.349763,65.349763 0 0 0 -65.34976,-65.349758 z m -11.15862,24.401431 h 22.31756 c 0.88312,0 1.59417,0.19023 1.59417,0.42654 V 93.41645 h 27.76867 c 0.23631,0 0.42655,0.711031 0.42655,1.594178 v 22.317552 c 0,0.88313 -0.19024,1.59418 -0.42655,1.59418 h -27.76867 v 27.76867 c 0,0.23631 -0.71105,0.42655 -1.59417,0.42655 h -22.31756 c -0.88314,0 -1.59417,-0.19024 -1.59418,-0.42655 v -27.76867 h -27.76867 c -0.23631,0 -0.42654,-0.71105 -0.42654,-1.59418 V 95.010628 c 0,-0.883147 0.19023,-1.594178 0.42654,-1.594178 h 27.76867 V 65.647773 c 0,-0.23631 0.71104,-0.42654 1.59418,-0.42654 z"
       id="path815-3-1"
       inkscape:connector-curvature="0" />
  </g>
</svg>
